<svg width="48" height="48" viewBox="0 0 48 48" fill="none" xmlns="http://www.w3.org/2000/svg">
<mask id="mask0_101856_141646" style="mask-type:alpha" maskUnits="userSpaceOnUse" x="0" y="0" width="48" height="48">
<rect width="48" height="48" fill="#D9D9D9"/>
</mask>
<g mask="url(#mask0_101856_141646)">
<path d="M17.8 40.8999C17.3667 40.8999 17.0087 40.7579 16.726 40.4739C16.442 40.1912 16.3 39.8332 16.3 39.3999V11.6499C16.3 11.2166 16.442 10.8579 16.726 10.5739C17.0087 10.2912 17.3667 10.1499 17.8 10.1499H20.8V7.1499H27.2001V10.1499H30.2001C30.6334 10.1499 30.992 10.2912 31.276 10.5739C31.5587 10.8579 31.7001 11.2166 31.7001 11.6499V39.3999C31.7001 39.8332 31.5587 40.1912 31.276 40.4739C30.992 40.7579 30.6334 40.8999 30.2001 40.8999H17.8ZM17.7001 19.4999H30.3V11.4999H17.7001V19.4999Z" fill="white"/>
</g>
</svg>
