<svg width="48" height="48" viewBox="0 0 48 48" fill="none" xmlns="http://www.w3.org/2000/svg">
<mask id="mask0_101856_141653" style="mask-type:alpha" maskUnits="userSpaceOnUse" x="0" y="0" width="48" height="48">
<rect width="48" height="48" fill="#D9D9D9"/>
</mask>
<g mask="url(#mask0_101856_141653)">
<path d="M5.59998 42.4001V35.0001H8.59998V13.0001H5.59998V5.6001H13V8.6001H35V5.6001H42.4V13.0001H39.4V35.0001H42.4V42.4001H35V39.4001H13V42.4001H5.59998ZM13 38.0001H35V35.0001H38V13.0001H35V10.0001H13V13.0001H9.99998V35.0001H13V38.0001ZM16.55 32.0001L23.65 14.0001H24.35L31.55 32.0001H29.95L27.75 26.6001H20.25L18.05 32.0001H16.55ZM20.75 25.3001H27.25L24.05 17.1001H23.85L20.75 25.3001ZM6.99998 11.6001H11.6V7.0001H6.99998V11.6001ZM36.4 11.6001H41V7.0001H36.4V11.6001ZM36.4 41.0001H41V36.4001H36.4V41.0001ZM6.99998 41.0001H11.6V36.4001H6.99998V41.0001Z" fill="white"/>
</g>
</svg>
